<svg xmlns="http://www.w3.org/2000/svg" width="256" height="256" viewBox="0 0 256 256" role="img" aria-label="DC">
  <defs>
    <linearGradient id="g" x1="0" y1="0" x2="1" y2="1">
      <stop offset="0" stop-color="#7c5cff"/>
      <stop offset="1" stop-color="#22d3ee"/>
    </linearGradient>
  </defs>
  <rect x="18" y="18" width="220" height="220" rx="56" fill="url(#g)"/>
  <path d="M78 176V80h34c30 0 52 18 52 48s-22 48-52 48H78Zm26-22h8c17 0 28-10 28-26s-11-26-28-26h-8v52Z" fill="rgba(255,255,255,0.92)"/>
  <path d="M196 93c-8-9-19-14-33-14-25 0-44 19-44 49s19 49 44 49c14 0 25-5 33-14l-16-14c-4 5-9 8-17 8-12 0-21-10-21-29s9-29 21-29c8 0 13 3 17 8l16-14Z" fill="rgba(10,12,20,0.16)"/>
</svg>
